<mxfile host="app.diagrams.net" modified="2021-10-28T02:24:01.925Z" agent="5.0 (Macintosh; Intel Mac OS X 10_15_7) AppleWebKit/537.36 (KHTML, like Gecko) Chrome/95.0.4638.54 Safari/537.36" etag="oEIsr8xK6E3oVp93Kq1Q" version="15.5.9" type="github">
  <diagram id="NGr0LPWtKBCf_N33pBbX" name="Page-1">
    <mxGraphModel dx="1298" dy="866" grid="1" gridSize="10" guides="1" tooltips="1" connect="1" arrows="1" fold="1" page="1" pageScale="1" pageWidth="827" pageHeight="1169" background="#F4F1DE" math="0" shadow="0">
      <root>
        <mxCell id="0" />
        <mxCell id="1" parent="0" />
        <mxCell id="n8QXb9TwwnBLtfPOe3GQ-1" value="扩展属性 - 颜色" style="ellipse;whiteSpace=wrap;html=1;fillColor=#F2CC8F;strokeColor=#E07A5F;fontColor=#393C56;rounded=1;sketch=1;" vertex="1" parent="1">
          <mxGeometry x="100" y="320" width="120" height="80" as="geometry" />
        </mxCell>
        <mxCell id="n8QXb9TwwnBLtfPOe3GQ-2" value="扩展属性 - 长度" style="ellipse;whiteSpace=wrap;html=1;fillColor=#F2CC8F;strokeColor=#E07A5F;fontColor=#393C56;rounded=1;sketch=1;" vertex="1" parent="1">
          <mxGeometry x="260" y="320" width="120" height="80" as="geometry" />
        </mxCell>
        <mxCell id="n8QXb9TwwnBLtfPOe3GQ-3" value="扩展属性 - 高度" style="ellipse;whiteSpace=wrap;html=1;fillColor=#F2CC8F;strokeColor=#E07A5F;fontColor=#393C56;rounded=1;sketch=1;" vertex="1" parent="1">
          <mxGeometry x="450" y="320" width="120" height="80" as="geometry" />
        </mxCell>
        <mxCell id="n8QXb9TwwnBLtfPOe3GQ-4" value="扩展属性-宽度" style="ellipse;whiteSpace=wrap;html=1;fillColor=#F2CC8F;strokeColor=#E07A5F;fontColor=#393C56;rounded=1;sketch=1;" vertex="1" parent="1">
          <mxGeometry x="630" y="320" width="120" height="80" as="geometry" />
        </mxCell>
        <mxCell id="n8QXb9TwwnBLtfPOe3GQ-6" value="主表记录&lt;br&gt;&lt;br&gt;车辆信息" style="ellipse;whiteSpace=wrap;html=1;aspect=fixed;fillColor=#F2CC8F;strokeColor=#E07A5F;fontColor=#393C56;rounded=1;sketch=1;" vertex="1" parent="1">
          <mxGeometry x="404" y="110" width="80" height="80" as="geometry" />
        </mxCell>
        <mxCell id="n8QXb9TwwnBLtfPOe3GQ-14" value="" style="endArrow=classic;html=1;entryX=0.642;entryY=0;entryDx=0;entryDy=0;entryPerimeter=0;strokeColor=#E07A5F;fontColor=#393C56;labelBackgroundColor=#F4F1DE;sketch=1;curved=1;" edge="1" parent="1" source="n8QXb9TwwnBLtfPOe3GQ-6" target="n8QXb9TwwnBLtfPOe3GQ-1">
          <mxGeometry width="50" height="50" relative="1" as="geometry">
            <mxPoint x="310" y="270" as="sourcePoint" />
            <mxPoint x="280" y="300" as="targetPoint" />
          </mxGeometry>
        </mxCell>
        <mxCell id="n8QXb9TwwnBLtfPOe3GQ-15" value="" style="endArrow=classic;html=1;strokeColor=#E07A5F;fontColor=#393C56;labelBackgroundColor=#F4F1DE;sketch=1;curved=1;" edge="1" parent="1" target="n8QXb9TwwnBLtfPOe3GQ-2">
          <mxGeometry width="50" height="50" relative="1" as="geometry">
            <mxPoint x="420.2953437451881" y="181.54056978690983" as="sourcePoint" />
            <mxPoint x="187.03999999999996" y="330" as="targetPoint" />
          </mxGeometry>
        </mxCell>
        <mxCell id="n8QXb9TwwnBLtfPOe3GQ-16" value="" style="endArrow=classic;html=1;exitX=0.5;exitY=1;exitDx=0;exitDy=0;strokeColor=#E07A5F;fontColor=#393C56;labelBackgroundColor=#F4F1DE;sketch=1;curved=1;" edge="1" parent="1" source="n8QXb9TwwnBLtfPOe3GQ-6" target="n8QXb9TwwnBLtfPOe3GQ-3">
          <mxGeometry width="50" height="50" relative="1" as="geometry">
            <mxPoint x="430.2953437451881" y="191.54056978690983" as="sourcePoint" />
            <mxPoint x="351.04434242710886" y="332.5410704797464" as="targetPoint" />
          </mxGeometry>
        </mxCell>
        <mxCell id="n8QXb9TwwnBLtfPOe3GQ-17" value="" style="endArrow=classic;html=1;entryX=0.217;entryY=0.038;entryDx=0;entryDy=0;entryPerimeter=0;strokeColor=#E07A5F;fontColor=#393C56;labelBackgroundColor=#F4F1DE;sketch=1;curved=1;" edge="1" parent="1" target="n8QXb9TwwnBLtfPOe3GQ-4">
          <mxGeometry width="50" height="50" relative="1" as="geometry">
            <mxPoint x="479.2553437451881" y="170.00056978690984" as="sourcePoint" />
            <mxPoint x="400.00434242710884" y="311.00107047974643" as="targetPoint" />
          </mxGeometry>
        </mxCell>
        <mxCell id="n8QXb9TwwnBLtfPOe3GQ-18" value="表单属性加载" style="text;html=1;strokeColor=none;fillColor=none;align=center;verticalAlign=middle;whiteSpace=wrap;fontColor=#393C56;rounded=1;sketch=1;" vertex="1" parent="1">
          <mxGeometry x="105" y="420" width="90" height="30" as="geometry" />
        </mxCell>
        <mxCell id="n8QXb9TwwnBLtfPOe3GQ-19" value="加载车辆信息主表属性" style="strokeWidth=2;html=1;shape=mxgraph.flowchart.start_2;whiteSpace=wrap;fillColor=#F2CC8F;strokeColor=#E07A5F;fontColor=#393C56;rounded=1;sketch=1;" vertex="1" parent="1">
          <mxGeometry x="100" y="460" width="105" height="50" as="geometry" />
        </mxCell>
        <mxCell id="n8QXb9TwwnBLtfPOe3GQ-20" value="" style="verticalLabelPosition=bottom;verticalAlign=top;html=1;strokeWidth=2;shape=mxgraph.arrows2.arrow;dy=0.69;dx=25;notch=0;direction=south;fillColor=#F2CC8F;strokeColor=#E07A5F;fontColor=#393C56;rounded=1;sketch=1;" vertex="1" parent="1">
          <mxGeometry x="127.5" y="510" width="50" height="80" as="geometry" />
        </mxCell>
        <mxCell id="n8QXb9TwwnBLtfPOe3GQ-21" value="加载车辆配置属性" style="strokeWidth=2;html=1;shape=mxgraph.flowchart.start_2;whiteSpace=wrap;fillColor=#F2CC8F;strokeColor=#E07A5F;fontColor=#393C56;rounded=1;sketch=1;" vertex="1" parent="1">
          <mxGeometry x="100" y="590" width="105" height="50" as="geometry" />
        </mxCell>
        <mxCell id="n8QXb9TwwnBLtfPOe3GQ-27" value="列表查询" style="text;html=1;strokeColor=none;fillColor=none;align=center;verticalAlign=middle;whiteSpace=wrap;fontColor=#393C56;rounded=1;sketch=1;" vertex="1" parent="1">
          <mxGeometry x="385" y="410" width="90" height="30" as="geometry" />
        </mxCell>
        <mxCell id="n8QXb9TwwnBLtfPOe3GQ-28" value="查询车辆信息主表" style="strokeWidth=2;html=1;shape=mxgraph.flowchart.start_2;whiteSpace=wrap;fillColor=#F2CC8F;strokeColor=#E07A5F;fontColor=#393C56;rounded=1;sketch=1;" vertex="1" parent="1">
          <mxGeometry x="380" y="450" width="105" height="50" as="geometry" />
        </mxCell>
        <mxCell id="n8QXb9TwwnBLtfPOe3GQ-29" value="" style="verticalLabelPosition=bottom;verticalAlign=top;html=1;strokeWidth=2;shape=mxgraph.arrows2.arrow;dy=0.69;dx=25;notch=0;direction=south;fillColor=#F2CC8F;strokeColor=#E07A5F;fontColor=#393C56;rounded=1;sketch=1;" vertex="1" parent="1">
          <mxGeometry x="407.5" y="500" width="50" height="80" as="geometry" />
        </mxCell>
        <mxCell id="n8QXb9TwwnBLtfPOe3GQ-30" value="加载车辆配置属性" style="strokeWidth=2;html=1;shape=mxgraph.flowchart.start_2;whiteSpace=wrap;fillColor=#F2CC8F;strokeColor=#E07A5F;fontColor=#393C56;rounded=1;sketch=1;" vertex="1" parent="1">
          <mxGeometry x="380" y="580" width="105" height="50" as="geometry" />
        </mxCell>
        <mxCell id="n8QXb9TwwnBLtfPOe3GQ-31" value="" style="verticalLabelPosition=bottom;verticalAlign=top;html=1;strokeWidth=2;shape=mxgraph.arrows2.arrow;dy=0.69;dx=25;notch=0;direction=south;fillColor=#F2CC8F;strokeColor=#E07A5F;fontColor=#393C56;rounded=1;sketch=1;" vertex="1" parent="1">
          <mxGeometry x="407.5" y="630" width="50" height="80" as="geometry" />
        </mxCell>
        <mxCell id="n8QXb9TwwnBLtfPOe3GQ-32" value="加载车辆扩展属性" style="strokeWidth=2;html=1;shape=mxgraph.flowchart.start_2;whiteSpace=wrap;fillColor=#F2CC8F;strokeColor=#E07A5F;fontColor=#393C56;rounded=1;sketch=1;" vertex="1" parent="1">
          <mxGeometry x="380" y="710" width="105" height="50" as="geometry" />
        </mxCell>
        <mxCell id="n8QXb9TwwnBLtfPOe3GQ-33" value="数据回显" style="text;html=1;strokeColor=none;fillColor=none;align=center;verticalAlign=middle;whiteSpace=wrap;fontColor=#393C56;rounded=1;sketch=1;" vertex="1" parent="1">
          <mxGeometry x="642.5" y="410" width="90" height="30" as="geometry" />
        </mxCell>
        <mxCell id="n8QXb9TwwnBLtfPOe3GQ-34" value="查询车辆信息主表" style="strokeWidth=2;html=1;shape=mxgraph.flowchart.start_2;whiteSpace=wrap;fillColor=#F2CC8F;strokeColor=#E07A5F;fontColor=#393C56;rounded=1;sketch=1;" vertex="1" parent="1">
          <mxGeometry x="637.5" y="450" width="105" height="50" as="geometry" />
        </mxCell>
        <mxCell id="n8QXb9TwwnBLtfPOe3GQ-35" value="" style="verticalLabelPosition=bottom;verticalAlign=top;html=1;strokeWidth=2;shape=mxgraph.arrows2.arrow;dy=0.69;dx=25;notch=0;direction=south;fillColor=#F2CC8F;strokeColor=#E07A5F;fontColor=#393C56;rounded=1;sketch=1;" vertex="1" parent="1">
          <mxGeometry x="665" y="500" width="50" height="80" as="geometry" />
        </mxCell>
        <mxCell id="n8QXb9TwwnBLtfPOe3GQ-36" value="加载车辆配置属性" style="strokeWidth=2;html=1;shape=mxgraph.flowchart.start_2;whiteSpace=wrap;fillColor=#F2CC8F;strokeColor=#E07A5F;fontColor=#393C56;rounded=1;sketch=1;" vertex="1" parent="1">
          <mxGeometry x="637.5" y="580" width="105" height="50" as="geometry" />
        </mxCell>
        <mxCell id="n8QXb9TwwnBLtfPOe3GQ-37" value="" style="verticalLabelPosition=bottom;verticalAlign=top;html=1;strokeWidth=2;shape=mxgraph.arrows2.arrow;dy=0.69;dx=25;notch=0;direction=south;fillColor=#F2CC8F;strokeColor=#E07A5F;fontColor=#393C56;rounded=1;sketch=1;" vertex="1" parent="1">
          <mxGeometry x="665" y="630" width="50" height="80" as="geometry" />
        </mxCell>
        <mxCell id="n8QXb9TwwnBLtfPOe3GQ-38" value="加载车辆扩展属性" style="strokeWidth=2;html=1;shape=mxgraph.flowchart.start_2;whiteSpace=wrap;fillColor=#F2CC8F;strokeColor=#E07A5F;fontColor=#393C56;rounded=1;sketch=1;" vertex="1" parent="1">
          <mxGeometry x="637.5" y="710" width="105" height="50" as="geometry" />
        </mxCell>
      </root>
    </mxGraphModel>
  </diagram>
</mxfile>
